PathFileType	4	(X/Y/Z)	C:/Users/opensim2020/Desktop/walking_exp_matlab/subject06_walking12_straigt_01.trc																																																																																																																																														
DataRate	CameraRate	NumFrames	NumMarkers	Units	OrigDataRate	OrigDataStartFrame	OrigNumFrames																																																																																																																																										
100	100	4	48	mm	100	917	196																																																																																																																																										
Frame#	Time	LFHD			RFHD			LBHD			RBHD			C7			T10			CLAV			STRN			RBAK			LSHO			LUPA			LELB			LFRM			LWRA			LWRB			LFIN			RSHO			RUPA			RELB			RFRM			RWRA			RWRB			RFIN			LASI			RASI			LPSI			RPSI			LTHI			LKNE			LTIB			LANK			LHEE			LTOE			RTHI			RKNE			RTIB			RANK			RHEE			RTOE			*39			*40			*41			*42			*43			*44			*45			*46			*47		
		X1	Y1	Z1	X2	Y2	Z2	X3	Y3	Z3	X4	Y4	Z4	X5	Y5	Z5	X6	Y6	Z6	X7	Y7	Z7	X8	Y8	Z8	X9	Y9	Z9	X10	Y10	Z10	X11	Y11	Z11	X12	Y12	Z12	X13	Y13	Z13	X14	Y14	Z14	X15	Y15	Z15	X16	Y16	Z16	X17	Y17	Z17	X18	Y18	Z18	X19	Y19	Z19	X20	Y20	Z20	X21	Y21	Z21	X22	Y22	Z22	X23	Y23	Z23	X24	Y24	Z24	X25	Y25	Z25	X26	Y26	Z26	X27	Y27	Z27	X28	Y28	Z28	X29	Y29	Z29	X30	Y30	Z30	X31	Y31	Z31	X32	Y32	Z32	X33	Y33	Z33	X34	Y34	Z34	X35	Y35	Z35	X36	Y36	Z36	X37	Y37	Z37	X38	Y38	Z38	X39	Y39	Z39	X40	Y40	Z40	X41	Y41	Z41	X42	Y42	Z42	X43	Y43	Z43	X44	Y44	Z44	X45	Y45	Z45	X46	Y46	Z46	X47	Y47	Z47	X48	Y48	Z48
																																																																																																																																																	
123	1.22	-1100.8053	1660.9939	-350.03329	-969.48291	1648.98462	-340.98166	-1110.55151	1620.21326	-213.05934	-981.59937	1612.54285	-206.02127	-1053.40784	1455.80737	-195.91241	-1043.36218	1125.17615	-162.57436	-1045.67566	1376.10034	-304.46069	-1050.08582	1201.46338	-344.45953	-978.72437	1284.21082	-117.76782	-1209.44885	1409.36816	-257.20145	-1289.48816	1211.45581	-281.81354	-1307.74011	1100.89209	-298.3508	-1328.08447	965.47852	-364.46982	-1276.84375	870.25751	-446.90543	-1324.50671	851.13531	-398.66983	-1319.83447	786.77362	-461.60675	-887.71765	1411.00159	-249.88953	-802.40326	1217.07947	-191.7191	-787.80426	1095.2334	-190.67877	-765.61548	975.84546	-184.58076	-785.15515	825.41217	-216.71651	-749.78278	839.7439	-161.60033	-742.83734	757.00079	-180.87396	-1144.84424	964.54358	-342.93906	-924.80347	972.30908	-335.53149	-1120.46997	993.78821	-185.63681	-951.80927	993.19836	-185.43686	-1198.02441	650.39075	-267.46194	-1173.83203	486.63669	-254.33653	-1156.89282	235.43027	-200.88319	-1110.19751	65.41219	-180.08687	-1065.82617	53.72469	-138.36902	-1105.21399	35.26317	-325.05933	-869.84863	646.2959	-361.84317	-893.45734	529.79907	-408.71283	-900.63361	308.37112	-275.88925	-944.06952	151.50909	-177.54036	-993.37927	142.04631	-135.46416	-925.5304	56.52439	-296.44077	-1047.32251	1708.7384	-250.58005	NaN	NaN	NaN	NaN	NaN	NaN	NaN	NaN	NaN	NaN	NaN	NaN	NaN	NaN	NaN	NaN	NaN	NaN	NaN	NaN	NaN	NaN	NaN	NaN
124	1.23	-1100.15967	1660.0979	-361.31021	-968.88367	1647.92224	-351.62372	-1110.61316	1619.9646	-224.16953	-981.74371	1612.11865	-216.51385	-1053.65991	1455.2196	-206.242	-1043.90344	1124.44678	-172.64722	-1045.70667	1375.40649	-314.69022	-1050.2843	1200.79895	-354.53705	-979.46912	1283.52734	-127.69859	-1209.64819	1408.95679	-267.56454	-1289.7196	1211.44189	-294.18396	-1308.20776	1101.25305	-313.0946	-1328.05371	967.37946	-382.18936	-1277.01367	874.45679	-467.23267	-1324.30359	853.82684	-419.21768	-1319.7666	791.14697	-483.84677	-887.90509	1410.20093	-259.48785	-802.61444	1216.36304	-201.03214	-788.32831	1094.50513	-199.74115	-765.88531	975.16107	-193.10825	-785.25818	824.7428	-225.18286	-750.33972	839.07574	-169.82501	-743.10095	756.41907	-189.25391	-1145.8324	963.70795	-352.94315	-925.44702	971.8078	-345.67236	-1120.83594	993.20813	-195.19711	-952.10931	992.66418	-195.52452	-1198.12744	649.75165	-274.5899	-1174.01807	485.97214	-259.32034	-1157.14856	235.33589	-202.98619	-1110.08911	65.62898	-180.47372	-1065.66956	54.14523	-138.61052	-1105.06653	34.88473	-325.18814	-871.00714	647.82178	-375.53186	-894.36029	531.86615	-423.65475	-900.89203	304.36115	-299.88144	-943.98053	142.52278	-209.4659	-993.12372	130.91425	-167.66	-926.15179	54.35616	-333.41119	-1047.1134	1708.2002	-261.86682	NaN	NaN	NaN	NaN	NaN	NaN	NaN	NaN	NaN	NaN	NaN	NaN	NaN	NaN	NaN	NaN	NaN	NaN	NaN	NaN	NaN	NaN	NaN	NaN
125	1.24	-1099.48181	1659.13306	-372.58875	-968.29736	1646.82935	-362.34421	-1110.64771	1619.58496	-235.31728	-981.76947	1611.61401	-227.0688	-1053.87988	1454.5824	-216.59425	-1044.35583	1123.70361	-182.65985	-1045.71887	1374.67468	-324.89267	-1050.48376	1200.02515	-364.57162	-980.21063	1282.53589	-137.82895	-1209.73828	1408.46643	-277.98788	-1289.93652	1211.33484	-306.45908	-1308.52612	1101.54871	-327.64783	-1328.10205	969.14862	-399.74252	-1276.96948	878.65515	-487.2204	-1323.89063	856.54364	-439.51846	-1319.479	795.68115	-505.82996	-888.09247	1409.31299	-268.91638	-803.24738	1215.55957	-209.8197	-788.48798	1093.78625	-208.17111	-766.21545	974.40387	-201.70805	-785.23724	824.02057	-234.01035	-750.59692	838.34143	-178.37531	-743.30481	755.68225	-197.86406	-1146.2384	962.57794	-362.02621	-926.16656	971.22626	-356.08594	-1121.09485	992.54028	-204.73941	-952.35486	992.00482	-205.71608	-1198.04907	648.99487	-281.76843	-1174.30176	485.41833	-264.4649	-1156.94556	235.3661	-205.37224	-1109.97412	65.8834	-180.81813	-1065.57312	54.71008	-138.6033	-1105.02979	34.70369	-325.42233	-872.12476	649.19562	-388.81888	-894.70941	533.66949	-437.99588	-901.08813	300.34372	-323.61948	-943.92444	133.79103	-241.81593	-992.94312	120.16235	-200.42477	-926.96979	52.49836	-370.43216	-1046.82385	1707.55396	-273.11465	NaN	NaN	NaN	NaN	NaN	NaN	NaN	NaN	NaN	NaN	NaN	NaN	NaN	NaN	NaN	NaN	NaN	NaN	NaN	NaN	NaN	NaN	NaN	NaN
126	1.25	-1098.75525	1658.14404	-383.8988	-967.63129	1645.71021	-372.9931	-1110.58899	1619.08728	-246.51482	-981.79291	1610.97656	-237.69635	-1054.02405	1453.90088	-227.07246	-1044.75024	1122.96204	-192.60678	-1045.71021	1373.80823	-335.19141	-1050.69421	1199.12012	-374.60474	-980.75409	1281.73779	-147.74922	-1209.78955	1407.83386	-288.44724	-1290.28076	1211.2489	-318.89282	-1308.71924	1101.75562	-342.0899	-1328.03088	971	-417.18494	-1276.6051	882.96698	-507.01923	-1323.31885	859.26678	-459.51846	-1319.0155	799.92572	-527.13568	-888.13214	1408.21448	-278.85349	-803.48236	1214.50732	-219.33272	-789.00244	1092.84155	-217.38872	-766.46045	973.56604	-210.44801	-785.16089	823.19025	-242.9231	-750.97705	837.45947	-186.94838	-743.29242	754.86407	-206.44505	-1147.30786	961.60205	-371.84042	-926.70374	970.48572	-366.33124	-1121.17468	991.76678	-214.2874	-952.45624	991.31659	-215.80063	-1197.93982	648.23615	-288.95544	-1174.35925	484.89514	-269.76331	-1156.86816	235.42108	-207.62325	-1109.86047	66.13834	-181.20874	-1065.55542	55.22828	-138.83521	-1105.12732	34.73314	-325.6889	-873.20294	650.44501	-401.60773	-895.43073	535.013	-451.2612	-901.21442	296.39984	-347.03479	-943.84705	125.47084	-274.28168	-992.8385	109.71738	-233.67261	-928.04956	51.17218	-407.33481	-1046.51184	1706.83557	-284.32285	NaN	NaN	NaN	NaN	NaN	NaN	NaN	NaN	NaN	NaN	NaN	NaN	NaN	NaN	NaN	NaN	NaN	NaN	NaN	NaN	NaN	NaN	NaN	NaN
